<svg width="14" height="20" viewBox="0 0 14 20" fill="none" xmlns="http://www.w3.org/2000/svg">
<path d="M7 10C7 9.11594 7.36875 8.2681 8.02513 7.64298C8.6815 7.01786 9.57174 6.66667 10.5 6.66667C11.4283 6.66667 12.3185 7.01786 12.9749 7.64298C13.6313 8.2681 14 9.11594 14 10C14 10.8841 13.6313 11.7319 12.9749 12.357C12.3185 12.9821 11.4283 13.3333 10.5 13.3333C9.57174 13.3333 8.6815 12.9821 8.02513 12.357C7.36875 11.7319 7 10.8841 7 10ZM0 16.6667C0 15.7826 0.368749 14.9348 1.02513 14.3096C1.6815 13.6845 2.57174 13.3333 3.5 13.3333H7V16.6667C7 17.5507 6.63125 18.3986 5.97487 19.0237C5.3185 19.6488 4.42826 20 3.5 20C2.57174 20 1.6815 19.6488 1.02513 19.0237C0.368749 18.3986 0 17.5507 0 16.6667ZM7 0V6.66667H10.5C11.4283 6.66667 12.3185 6.31548 12.9749 5.69036C13.6313 5.06523 14 4.21739 14 3.33333C14 2.44928 13.6313 1.60143 12.9749 0.976311C12.3185 0.35119 11.4283 0 10.5 0L7 0ZM0 3.33333C0 4.21739 0.368749 5.06523 1.02513 5.69036C1.6815 6.31548 2.57174 6.66667 3.5 6.66667H7V0H3.5C2.57174 0 1.6815 0.35119 1.02513 0.976311C0.368749 1.60143 0 2.44928 0 3.33333ZM0 10C0 10.8841 0.368749 11.7319 1.02513 12.357C1.6815 12.9821 2.57174 13.3333 3.5 13.3333H7V6.66667H3.5C2.57174 6.66667 1.6815 7.01786 1.02513 7.64298C0.368749 8.2681 0 9.11594 0 10Z" fill="#ABB2BF"/>
</svg>
