<svg width="327" height="449" viewBox="0 0 327 449" fill="none" xmlns="http://www.w3.org/2000/svg">
<circle cx="2" cy="2" r="2" fill="#ABB2BF"/>
<circle cx="22" cy="2" r="2" fill="#ABB2BF"/>
<circle cx="42" cy="2" r="2" fill="#ABB2BF"/>
<circle cx="62" cy="2" r="2" fill="#ABB2BF"/>
<circle cx="82" cy="2" r="2" fill="#ABB2BF"/>
<circle cx="2" cy="22" r="2" fill="#ABB2BF"/>
<circle cx="22" cy="22" r="2" fill="#ABB2BF"/>
<circle cx="42" cy="22" r="2" fill="#ABB2BF"/>
<circle cx="62" cy="22" r="2" fill="#ABB2BF"/>
<circle cx="82" cy="22" r="2" fill="#ABB2BF"/>
<circle cx="2" cy="42" r="2" fill="#ABB2BF"/>
<circle cx="22" cy="42" r="2" fill="#ABB2BF"/>
<circle cx="42" cy="42" r="2" fill="#ABB2BF"/>
<circle cx="62" cy="42" r="2" fill="#ABB2BF"/>
<circle cx="82" cy="42" r="2" fill="#ABB2BF"/>
<circle cx="2" cy="62" r="2" fill="#ABB2BF"/>
<circle cx="22" cy="62" r="2" fill="#ABB2BF"/>
<circle cx="42" cy="62" r="2" fill="#ABB2BF"/>
<circle cx="62" cy="62" r="2" fill="#ABB2BF"/>
<circle cx="82" cy="62" r="2" fill="#ABB2BF"/>
<circle cx="2" cy="82" r="2" fill="#ABB2BF"/>
<circle cx="22" cy="82" r="2" fill="#ABB2BF"/>
<circle cx="42" cy="82" r="2" fill="#ABB2BF"/>
<circle cx="62" cy="82" r="2" fill="#ABB2BF"/>
<circle cx="82" cy="82" r="2" fill="#ABB2BF"/>
<circle cx="225" cy="222" r="2" fill="#ABB2BF"/>
<circle cx="250" cy="222" r="2" fill="#ABB2BF"/>
<circle cx="275" cy="222" r="2" fill="#ABB2BF"/>
<circle cx="300" cy="222" r="2" fill="#ABB2BF"/>
<circle cx="325" cy="222" r="2" fill="#ABB2BF"/>
<circle cx="225" cy="239.333" r="2" fill="#ABB2BF"/>
<circle cx="250" cy="239.333" r="2" fill="#ABB2BF"/>
<circle cx="275" cy="239.333" r="2" fill="#ABB2BF"/>
<circle cx="300" cy="239.333" r="2" fill="#ABB2BF"/>
<circle cx="325" cy="239.333" r="2" fill="#ABB2BF"/>
<circle cx="225" cy="256.667" r="2" fill="#ABB2BF"/>
<circle cx="250" cy="256.667" r="2" fill="#ABB2BF"/>
<circle cx="275" cy="256.667" r="2" fill="#ABB2BF"/>
<circle cx="300" cy="256.667" r="2" fill="#ABB2BF"/>
<circle cx="325" cy="256.667" r="2" fill="#ABB2BF"/>
<circle cx="225" cy="274" r="2" fill="#ABB2BF"/>
<circle cx="250" cy="274" r="2" fill="#ABB2BF"/>
<circle cx="275" cy="274" r="2" fill="#ABB2BF"/>
<circle cx="300" cy="274" r="2" fill="#ABB2BF"/>
<circle cx="325" cy="274" r="2" fill="#ABB2BF"/>
<path fill-rule="evenodd" clip-rule="evenodd" d="M319 449H48V448H319V449Z" fill="#C778DD"/>
</svg>
