<svg width="105" height="31" viewBox="0 0 105 31" fill="none" xmlns="http://www.w3.org/2000/svg">
<path d="M39.168 10.176V14.172H44.928V16.932H39.168V21.18H46.116V24H35.232V7.368H46.104L45.708 10.176H39.168ZM55.7186 6.192V19.992C55.7186 20.504 55.8626 20.872 56.1506 21.096C56.4466 21.312 56.8506 21.42 57.3626 21.42C57.6906 21.42 58.0066 21.384 58.3106 21.312C58.6146 21.232 58.8986 21.14 59.1626 21.036L60.0746 23.568C59.6426 23.792 59.1226 23.988 58.5146 24.156C57.9066 24.324 57.1986 24.408 56.3906 24.408C54.8546 24.408 53.7266 23.968 53.0066 23.088C52.2866 22.2 51.9266 21.012 51.9266 19.524V8.784H48.1706V6.192H55.7186ZM71.2493 11.256V21.408H74.4893V24H63.8453V21.408H67.4573V13.848H63.9653V11.256H71.2493ZM68.9573 4.584C69.6133 4.584 70.1493 4.788 70.5653 5.196C70.9813 5.604 71.1893 6.112 71.1893 6.72C71.1893 7.328 70.9813 7.84 70.5653 8.256C70.1493 8.664 69.6133 8.868 68.9573 8.868C68.2933 8.868 67.7493 8.664 67.3253 8.256C66.9093 7.84 66.7013 7.328 66.7013 6.72C66.7013 6.112 66.9093 5.604 67.3253 5.196C67.7493 4.788 68.2933 4.584 68.9573 4.584ZM88.5799 20.328C88.5799 20.808 88.6439 21.156 88.7719 21.372C88.9079 21.588 89.1239 21.752 89.4199 21.864L88.6399 24.36C87.8879 24.288 87.2519 24.124 86.7319 23.868C86.2199 23.604 85.8159 23.208 85.5199 22.68C85.0319 23.264 84.4079 23.7 83.6479 23.988C82.8879 24.268 82.1119 24.408 81.3199 24.408C80.0079 24.408 78.9599 24.036 78.1759 23.292C77.3999 22.54 77.0119 21.576 77.0119 20.4C77.0119 19.016 77.5519 17.948 78.6319 17.196C79.7199 16.444 81.2479 16.068 83.2159 16.068H84.9319V15.588C84.9319 14.924 84.7159 14.432 84.2839 14.112C83.8599 13.792 83.2359 13.632 82.4119 13.632C82.0039 13.632 81.4799 13.692 80.8399 13.812C80.1999 13.924 79.5599 14.088 78.9199 14.304L78.0439 11.784C78.8679 11.472 79.7239 11.236 80.6119 11.076C81.5079 10.916 82.3079 10.836 83.0119 10.836C84.9079 10.836 86.3079 11.224 87.2119 12C88.1239 12.768 88.5799 13.88 88.5799 15.336V20.328ZM82.6279 21.696C83.0359 21.696 83.4639 21.576 83.9119 21.336C84.3599 21.088 84.6999 20.74 84.9319 20.292V18.228H83.9959C82.9399 18.228 82.1639 18.392 81.6679 18.72C81.1719 19.04 80.9239 19.512 80.9239 20.136C80.9239 20.624 81.0719 21.008 81.3679 21.288C81.6719 21.56 82.0919 21.696 82.6279 21.696ZM97.3545 21.696C97.9865 21.696 98.4945 21.596 98.8785 21.396C99.2705 21.196 99.4665 20.896 99.4665 20.496C99.4665 20.224 99.3905 19.996 99.2385 19.812C99.0865 19.628 98.7945 19.452 98.3625 19.284C97.9305 19.116 97.2905 18.916 96.4425 18.684C95.6665 18.476 94.9785 18.212 94.3785 17.892C93.7865 17.572 93.3225 17.16 92.9865 16.656C92.6585 16.152 92.4945 15.524 92.4945 14.772C92.4945 14.012 92.7065 13.336 93.1305 12.744C93.5545 12.152 94.1785 11.688 95.0025 11.352C95.8265 11.008 96.8345 10.836 98.0265 10.836C99.1625 10.836 100.151 10.984 100.991 11.28C101.839 11.568 102.571 11.936 103.187 12.384L101.675 14.616C101.147 14.288 100.579 14.028 99.9705 13.836C99.3625 13.636 98.7505 13.536 98.1345 13.536C97.5185 13.536 97.0585 13.62 96.7545 13.788C96.4585 13.948 96.3105 14.192 96.3105 14.52C96.3105 14.736 96.3865 14.924 96.5385 15.084C96.6985 15.236 96.9945 15.396 97.4265 15.564C97.8585 15.724 98.4905 15.924 99.3225 16.164C100.147 16.396 100.863 16.664 101.471 16.968C102.087 17.272 102.563 17.68 102.898 18.192C103.235 18.696 103.403 19.364 103.403 20.196C103.403 21.124 103.127 21.904 102.575 22.536C102.023 23.16 101.291 23.628 100.379 23.94C99.4665 24.252 98.4665 24.408 97.3785 24.408C96.1465 24.408 95.0585 24.232 94.1145 23.88C93.1705 23.528 92.3665 23.064 91.7025 22.488L93.6105 20.352C94.1065 20.736 94.6665 21.056 95.2905 21.312C95.9225 21.568 96.6105 21.696 97.3545 21.696Z" fill="white"/>
<path fill-rule="evenodd" clip-rule="evenodd" d="M18 4H12V10H6H0V16V22V28H6H12V22H18H24V16V10V4H18ZM6 22H12V16H18V10H12V16H6V22Z" fill="white"/>
</svg>
